# xmcd
#
# Track frame offsets: 
#        150
#        22464
#        40703
#        58543
#        79185
#        99288
#        113982
#        132212
#        146290
#        166189
#        182638
#        207843
#        222735
#        237859
#        256774
#        275449
#        291658
#        304612
#        321983
#
# Disc length: 4535 seconds
#
# Revision: 0
# Processed by: cddbd v1.5.2PL0 Copyright (c) Steve Scherf et al.
# Submitted via: ExactAudioCopy v0.99pb5
#
DISCID=1911b513
DTITLE=Various Artist - Amour
DYEAR=2003
DGENRE=Pop/Funk
TTITLE0=The Winner Takes It All
TTITLE1=How Deep is your love
TTITLE2=I'll make love to you
TTITLE3=No matter what
TTITLE4=Back to you
TTITLE5=Love Fool
TTITLE6=Your Song
TTITLE7=She
TTITLE8=Hero
TTITLE9=Wonderful Tonight
TTITLE10=More than words
TTITLE11=Out of Reach
TTITLE12=Truly
TTITLE13=One Day In your Life
TTITLE14=Every breath you take
TTITLE15=If tomorrow never Comes
TTITLE16=My cherie Comes
TTITLE17=Say What you want
TTITLE18=Love is All Around
EXTD=
EXTT0=
EXTT1=
EXTT2=
EXTT3=
EXTT4=
EXTT5=
EXTT6=
EXTT7=
EXTT8=
EXTT9=
EXTT10=
EXTT11=
EXTT12=
EXTT13=
EXTT14=
EXTT15=
EXTT16=
EXTT17=
EXTT18=
PLAYORDER=
